<?xml version="1.0" encoding="UTF-8" standalone="no"?>
<!DOCTYPE svg PUBLIC "-//W3C//DTD SVG 1.1//EN"
 "http://www.w3.org/Graphics/SVG/1.1/DTD/svg11.dtd">
<!-- Generated by graphviz version 2.38.0 (20140413.2041)
 -->
<!-- Title: models_diagram Pages: 1 -->
<svg width="330pt" height="225pt"
 viewBox="0.00 0.00 330.28 225.00" xmlns="http://www.w3.org/2000/svg" xmlns:xlink="http://www.w3.org/1999/xlink">
<g id="graph0" class="graph" transform="scale(1 1) rotate(0) translate(4 221)">
<title>models_diagram</title>
<polygon fill="none" stroke="none" points="-4,4 -4,-221 326.277,-221 326.277,4 -4,4"/>
<!-- _diagram_info -->
<g id="node1" class="node"><title>_diagram_info</title>
<text text-anchor="start" x="8" y="-202.6" font-family="Times,serif" font-size="13.00">Models diagram</text>
<text text-anchor="start" x="8" y="-189.6" font-family="Times,serif" font-size="13.00">Date: Apr 15 2016 &#45; 21:33</text>
<text text-anchor="start" x="8" y="-176.6" font-family="Times,serif" font-size="13.00">Migration version: 20160416020124</text>
<text text-anchor="start" x="8" y="-163.6" font-family="Times,serif" font-size="13.00">Generated by RailRoady 1.4.2</text>
<text text-anchor="start" x="8" y="-150.6" font-family="Times,serif" font-size="13.00">http://railroady.prestonlee.com</text>
</g>
<!-- Inventario -->
<g id="node2" class="node"><title>Inventario</title>
<ellipse fill="none" stroke="black" cx="273.688" cy="-18" rx="46.3959" ry="18"/>
<text text-anchor="middle" x="273.688" y="-13.8" font-family="Times,serif" font-size="14.00">Inventario</text>
</g>
<!-- Operacion -->
<g id="node3" class="node"><title>Operacion</title>
<ellipse fill="none" stroke="black" cx="273.688" cy="-90" rx="46.8719" ry="18"/>
<text text-anchor="middle" x="273.688" y="-85.8" font-family="Times,serif" font-size="14.00">Operacion</text>
</g>
<!-- Operacion&#45;&gt;Inventario -->
<g id="edge1" class="edge"><title>Operacion&#45;&gt;Inventario</title>
<path fill="none" stroke="#bf0c1a" d="M273.688,-63.6398C273.688,-57.348 273.688,-50.6053 273.688,-44.3156"/>
<ellipse fill="none" stroke="#bf0c1a" cx="273.688" cy="-67.6966" rx="4" ry="4"/>
<ellipse fill="#bf0c1a" stroke="#bf0c1a" cx="273.688" cy="-40.1043" rx="4" ry="4"/>
</g>
<!-- Trabajador -->
<g id="node4" class="node"><title>Trabajador</title>
<ellipse fill="none" stroke="black" cx="273.688" cy="-180.5" rx="48.6796" ry="18"/>
<text text-anchor="middle" x="273.688" y="-176.3" font-family="Times,serif" font-size="14.00">Trabajador</text>
</g>
<!-- Trabajador&#45;&gt;Operacion -->
<g id="edge2" class="edge"><title>Trabajador&#45;&gt;Operacion</title>
<path fill="none" stroke="#2e5fa6" d="M273.688,-154.189C273.688,-142.971 273.688,-129.752 273.688,-118.311"/>
<ellipse fill="none" stroke="#2e5fa6" cx="273.688" cy="-158.436" rx="4" ry="4"/>
<polygon fill="#2e5fa6" stroke="#2e5fa6" points="273.688,-118.011 278.188,-108.011 273.688,-113.011 273.688,-108.011 273.688,-108.011 273.688,-108.011 273.688,-113.011 269.188,-108.011 273.688,-118.011 273.688,-118.011"/>
</g>
</g>
</svg>
