<?xml version="1.0" encoding="UTF-8" standalone="no"?>
<!DOCTYPE svg PUBLIC "-//W3C//DTD SVG 1.1//EN"
 "http://www.w3.org/Graphics/SVG/1.1/DTD/svg11.dtd">
<!-- Generated by graphviz version 2.38.0 (20140413.2041)
 -->
<!-- Title: models_diagram Pages: 1 -->
<svg width="482pt" height="397pt"
 viewBox="0.00 0.00 481.55 397.00" xmlns="http://www.w3.org/2000/svg" xmlns:xlink="http://www.w3.org/1999/xlink">
<g id="graph0" class="graph" transform="scale(1 1) rotate(0) translate(4 393)">
<title>models_diagram</title>
<polygon fill="none" stroke="none" points="-4,4 -4,-393 477.55,-393 477.55,4 -4,4"/>
<!-- _diagram_info -->
<g id="node1" class="node"><title>_diagram_info</title>
<text text-anchor="start" x="8" y="-360.6" font-family="Times,serif" font-size="13.00">Models diagram</text>
<text text-anchor="start" x="8" y="-347.6" font-family="Times,serif" font-size="13.00">Date: Apr 15 2016 &#45; 21:33</text>
<text text-anchor="start" x="8" y="-334.6" font-family="Times,serif" font-size="13.00">Migration version: 20160416020124</text>
<text text-anchor="start" x="8" y="-321.6" font-family="Times,serif" font-size="13.00">Generated by RailRoady 1.4.2</text>
<text text-anchor="start" x="8" y="-308.6" font-family="Times,serif" font-size="13.00">http://railroady.prestonlee.com</text>
</g>
<!-- Inventario -->
<g id="node2" class="node"><title>Inventario</title>
<path fill="none" stroke="black" d="M237.825,-0.5C237.825,-0.5 461.55,-0.5 461.55,-0.5 467.55,-0.5 473.55,-6.5 473.55,-12.5 473.55,-12.5 473.55,-116.5 473.55,-116.5 473.55,-122.5 467.55,-128.5 461.55,-128.5 461.55,-128.5 237.825,-128.5 237.825,-128.5 231.825,-128.5 225.825,-122.5 225.825,-116.5 225.825,-116.5 225.825,-12.5 225.825,-12.5 225.825,-6.5 231.825,-0.5 237.825,-0.5"/>
<text text-anchor="middle" x="349.688" y="-113.3" font-family="Times,serif" font-size="14.00">Inventario</text>
<polyline fill="none" stroke="black" points="225.825,-106.5 473.55,-106.5 "/>
<text text-anchor="start" x="233.825" y="-91.3" font-family="Times,serif" font-size="14.00">id :integer</text>
<text text-anchor="start" x="233.825" y="-77.3" font-family="Times,serif" font-size="14.00">numserie :integer</text>
<text text-anchor="start" x="233.825" y="-63.3" font-family="Times,serif" font-size="14.00">tamaño :integer</text>
<text text-anchor="start" x="233.825" y="-49.3" font-family="Times,serif" font-size="14.00">descripcion :text</text>
<text text-anchor="start" x="233.825" y="-35.3" font-family="Times,serif" font-size="14.00">created_at :timestamp without time zone</text>
<text text-anchor="start" x="233.825" y="-21.3" font-family="Times,serif" font-size="14.00">updated_at :timestamp without time zone</text>
<text text-anchor="start" x="233.825" y="-7.3" font-family="Times,serif" font-size="14.00">operacion_id :integer</text>
</g>
<!-- Operacion -->
<g id="node3" class="node"><title>Operacion</title>
<path fill="none" stroke="black" d="M237.825,-165.5C237.825,-165.5 461.55,-165.5 461.55,-165.5 467.55,-165.5 473.55,-171.5 473.55,-177.5 473.55,-177.5 473.55,-239.5 473.55,-239.5 473.55,-245.5 467.55,-251.5 461.55,-251.5 461.55,-251.5 237.825,-251.5 237.825,-251.5 231.825,-251.5 225.825,-245.5 225.825,-239.5 225.825,-239.5 225.825,-177.5 225.825,-177.5 225.825,-171.5 231.825,-165.5 237.825,-165.5"/>
<text text-anchor="middle" x="349.688" y="-236.3" font-family="Times,serif" font-size="14.00">Operacion</text>
<polyline fill="none" stroke="black" points="225.825,-229.5 473.55,-229.5 "/>
<text text-anchor="start" x="233.825" y="-214.3" font-family="Times,serif" font-size="14.00">id :integer</text>
<text text-anchor="start" x="233.825" y="-200.3" font-family="Times,serif" font-size="14.00">created_at :timestamp without time zone</text>
<text text-anchor="start" x="233.825" y="-186.3" font-family="Times,serif" font-size="14.00">updated_at :timestamp without time zone</text>
<text text-anchor="start" x="233.825" y="-172.3" font-family="Times,serif" font-size="14.00">trabajador_id :integer</text>
</g>
<!-- Operacion&#45;&gt;Inventario -->
<g id="edge1" class="edge"><title>Operacion&#45;&gt;Inventario</title>
<path fill="none" stroke="#de8124" d="M349.688,-157.275C349.688,-150.604 349.688,-143.665 349.688,-136.723"/>
<ellipse fill="none" stroke="#de8124" cx="349.688" cy="-161.28" rx="4" ry="4"/>
<ellipse fill="#de8124" stroke="#de8124" cx="349.688" cy="-132.588" rx="4" ry="4"/>
</g>
<!-- Trabajador -->
<g id="node4" class="node"><title>Trabajador</title>
<path fill="none" stroke="black" d="M237.825,-288.5C237.825,-288.5 461.55,-288.5 461.55,-288.5 467.55,-288.5 473.55,-294.5 473.55,-300.5 473.55,-300.5 473.55,-376.5 473.55,-376.5 473.55,-382.5 467.55,-388.5 461.55,-388.5 461.55,-388.5 237.825,-388.5 237.825,-388.5 231.825,-388.5 225.825,-382.5 225.825,-376.5 225.825,-376.5 225.825,-300.5 225.825,-300.5 225.825,-294.5 231.825,-288.5 237.825,-288.5"/>
<text text-anchor="middle" x="349.688" y="-373.3" font-family="Times,serif" font-size="14.00">Trabajador</text>
<polyline fill="none" stroke="black" points="225.825,-366.5 473.55,-366.5 "/>
<text text-anchor="start" x="233.825" y="-351.3" font-family="Times,serif" font-size="14.00">id :integer</text>
<text text-anchor="start" x="233.825" y="-337.3" font-family="Times,serif" font-size="14.00">nombre :character varying</text>
<text text-anchor="start" x="233.825" y="-323.3" font-family="Times,serif" font-size="14.00">mail :character varying</text>
<text text-anchor="start" x="233.825" y="-309.3" font-family="Times,serif" font-size="14.00">created_at :timestamp without time zone</text>
<text text-anchor="start" x="233.825" y="-295.3" font-family="Times,serif" font-size="14.00">updated_at :timestamp without time zone</text>
</g>
<!-- Trabajador&#45;&gt;Operacion -->
<g id="edge2" class="edge"><title>Trabajador&#45;&gt;Operacion</title>
<path fill="none" stroke="#c7950a" d="M349.688,-280.331C349.688,-274.142 349.688,-267.867 349.688,-261.74"/>
<ellipse fill="none" stroke="#c7950a" cx="349.688" cy="-284.378" rx="4" ry="4"/>
<polygon fill="#c7950a" stroke="#c7950a" points="349.688,-261.611 354.188,-251.611 349.688,-256.611 349.688,-251.611 349.688,-251.611 349.688,-251.611 349.688,-256.611 345.188,-251.611 349.688,-261.611 349.688,-261.611"/>
</g>
</g>
</svg>
